<?xml version="1.0" standalone="no"?>
<!DOCTYPE svg PUBLIC "-//W3C//DTD SVG 20010904//EN"
 "http://www.w3.org/TR/2001/REC-SVG-20010904/DTD/svg10.dtd">
<svg version="1.0" xmlns="http://www.w3.org/2000/svg"
 width="421.000000pt" height="421.000000pt" viewBox="0 0 421.000000 421.000000"
 preserveAspectRatio="xMidYMid meet">
<metadata>
Created by potrace 1.14, written by Peter Selinger 2001-2017
</metadata>
<g transform="translate(0.000000,421.000000) scale(0.100000,-0.100000)"
fill="#000000" stroke="none">
<path d="M2286 3839 c-56 -48 -157 -109 -180 -109 -2 0 -7 19 -11 43 -9 60
-15 77 -26 77 -6 0 -41 -18 -79 -41 -38 -22 -136 -71 -219 -109 -219 -100
-344 -193 -421 -312 l-37 -56 -18 51 c-10 29 -21 56 -26 61 -16 18 -161 -252
-185 -344 -26 -100 -15 -362 25 -600 41 -249 49 -283 77 -343 20 -45 24 -73
29 -207 8 -195 9 -200 40 -200 28 0 29 3 15 29 -13 26 -30 137 -39 266 -10
127 3 254 48 500 32 172 48 226 87 292 42 73 78 92 222 120 147 28 197 30 423
17 117 -6 201 -6 285 3 65 6 144 12 174 12 62 1 229 -39 296 -71 81 -37 147
-172 169 -343 4 -27 18 -111 32 -185 17 -96 24 -169 24 -256 -1 -125 -23 -320
-41 -354 -14 -27 -13 -30 14 -30 31 0 36 15 36 118 1 111 16 270 28 285 38 50
87 355 99 617 7 170 -11 250 -96 424 -65 131 -154 276 -171 276 -6 0 -10 -28
-10 -67 l-1 -68 -34 38 c-18 22 -66 96 -105 165 -79 140 -105 176 -118 168 -5
-3 -15 -27 -22 -53 -7 -27 -14 -43 -17 -38 -2 6 -23 64 -46 129 -23 66 -47
121 -53 123 -7 2 -22 -13 -35 -33 -20 -33 -23 -35 -30 -18 -4 10 -8 34 -8 52
-1 19 -6 32 -13 31 -7 0 -44 -27 -82 -60z"/>
<path d="M1562 2502 c-56 -20 -105 -60 -128 -104 -13 -24 -19 -68 -10 -68 2 0
34 14 72 32 59 26 84 32 169 36 71 3 117 0 158 -11 69 -18 81 -8 50 45 -42 73
-202 109 -311 70z"/>
<path d="M2475 2511 c-77 -19 -145 -72 -145 -113 0 -25 9 -26 68 -11 39 10 88
14 157 11 86 -4 110 -9 169 -36 38 -18 70 -32 72 -32 9 0 3 44 -10 69 -47 91
-189 141 -311 112z"/>
<path d="M1575 2267 c-66 -26 -104 -58 -129 -109 -28 -55 -32 -78 -16 -78 5 0
9 3 8 8 -3 12 26 66 52 96 33 38 91 66 149 73 97 11 212 -53 252 -142 13 -29
19 -34 19 -19 0 36 -62 116 -114 149 -41 25 -61 30 -120 32 -39 1 -85 -3 -101
-10z"/>
<path d="M2462 2265 c-18 -8 -47 -24 -64 -36 -36 -26 -88 -105 -88 -133 1 -15
6 -10 21 19 39 79 109 128 200 140 97 13 195 -41 232 -126 21 -47 37 -63 37
-36 0 7 -11 36 -25 64 -27 53 -71 90 -134 111 -46 16 -139 14 -179 -3z"/>
<path d="M1625 2230 c-44 -18 -78 -67 -83 -119 -6 -65 11 -106 58 -140 30 -22
45 -26 84 -23 40 4 45 6 30 17 -16 11 -13 15 22 38 41 29 68 22 44 -10 -8 -10
-1 -6 14 9 58 54 41 166 -33 215 -35 24 -97 30 -136 13z m29 -65 c9 -25 -5
-45 -30 -45 -14 0 -27 7 -30 15 -10 25 4 45 30 45 13 0 26 -7 30 -15z"/>
<path d="M2459 2217 c-86 -57 -91 -165 -12 -239 30 -29 38 -31 97 -29 33 1 37
3 26 16 -7 9 -11 17 -9 18 24 19 68 47 73 47 3 0 6 -10 6 -22 0 -21 2 -21 20
7 25 38 26 109 2 154 -37 69 -137 92 -203 48z m46 -67 c0 -18 -6 -26 -23 -28
-24 -4 -38 18 -28 44 3 9 15 14 28 12 17 -2 23 -10 23 -28z"/>
<path d="M1070 2106 c0 -8 16 -27 35 -41 22 -17 42 -46 54 -78 23 -60 28 -50
6 12 -18 51 -49 97 -76 111 -15 8 -19 7 -19 -4z"/>
<path d="M3108 2088 c-33 -35 -68 -111 -68 -147 1 -9 9 8 19 38 13 37 31 65
56 86 22 18 36 37 33 46 -4 10 -15 4 -40 -23z"/>
<path d="M970 361 c0 -21 9 -41 25 -56 l24 -25 1086 0 1086 0 24 25 c14 13 25
31 25 40 0 14 -4 13 -29 -4 -29 -21 -33 -21 -1078 -21 -682 0 -1061 4 -1085
10 -20 6 -46 22 -58 37 l-20 26 0 -32z"/>
</g>
</svg>
